<?xml version="1.0" standalone="no"?>
<!DOCTYPE svg PUBLIC "-//W3C//DTD SVG 20010904//EN"
 "http://www.w3.org/TR/2001/REC-SVG-20010904/DTD/svg10.dtd">
<svg version="1.0" xmlns="http://www.w3.org/2000/svg"
 width="2048.000000pt" height="2048.000000pt" viewBox="0 0 2048.000000 2048.000000"
 preserveAspectRatio="xMidYMid meet">
<metadata>
Created by potrace 1.16, written by Peter Selinger 2001-2019
</metadata>
<g transform="translate(0.000000,2048.000000) scale(0.100000,-0.100000)"
fill="#000000" stroke="none">
<path d="M7585 11083 c-84 -18 -219 -72 -296 -119 -136 -82 -268 -259 -311
-417 -28 -103 -28 -313 0 -414 58 -210 247 -409 522 -548 30 -15 111 -50 180
-77 331 -131 461 -220 530 -363 21 -43 24 -65 25 -155 0 -140 -24 -207 -107
-296 -73 -77 -126 -109 -225 -134 -292 -75 -549 56 -688 352 -33 71 -85 245
-85 287 0 25 -34 41 -85 41 -70 0 -65 30 -65 -411 0 -458 -13 -406 113 -439
204 -52 424 -84 587 -84 121 0 165 4 267 26 229 51 359 116 487 244 95 94 137
161 177 281 74 219 70 407 -14 610 -34 83 -73 138 -149 209 -124 115 -267 194
-608 335 -162 66 -289 137 -353 198 -21 20 -55 70 -75 110 -34 69 -37 82 -37
160 1 222 146 358 399 377 204 15 361 -68 446 -236 34 -67 73 -183 95 -285
l17 -75 68 0 69 0 3 138 c2 75 2 241 0 368 l-3 232 -89 21 c-49 12 -101 26
-116 31 -14 6 -81 19 -148 30 -151 25 -423 26 -531 3z"/>
<path d="M12775 11089 c-127 -21 -300 -112 -435 -229 -58 -49 -121 -110 -140
-135 l-35 -45 -6 202 c-3 112 -6 204 -7 206 -9 10 -59 -4 -127 -37 -155 -75
-311 -117 -550 -146 -173 -21 -177 -23 -169 -77 4 -24 8 -45 10 -47 3 -3 56
-8 118 -12 72 -5 126 -14 146 -24 40 -21 86 -93 99 -156 7 -33 11 -352 11
-948 0 -996 2 -966 -65 -1040 -46 -50 -162 -91 -258 -91 -45 0 -57 -16 -57
-72 l0 -48 619 0 c402 0 621 3 623 10 2 5 1 32 0 59 l-4 49 -61 7 c-208 23
-291 86 -316 245 -7 42 -11 351 -11 854 l0 788 65 73 c83 92 149 143 266 206
276 146 508 79 595 -173 41 -120 46 -252 42 -1048 -5 -722 -5 -725 -27 -780
-26 -64 -52 -95 -102 -120 -31 -17 -148 -44 -219 -52 -21 -3 -26 -10 -32 -48
-5 -25 -6 -51 -3 -57 3 -10 138 -13 625 -13 l621 0 -3 57 -3 57 -77 12 c-208
32 -284 98 -308 263 -11 76 -12 1573 -1 1603 13 36 150 183 211 227 88 64 188
117 256 137 75 21 223 16 274 -10 99 -52 152 -123 186 -251 18 -66 19 -122 19
-900 0 -796 -1 -833 -20 -894 -25 -84 -65 -124 -147 -149 -35 -11 -90 -23
-123 -27 -33 -4 -63 -12 -67 -19 -4 -6 -8 -32 -8 -59 l0 -47 618 2 617 3 3 45
c1 25 -1 51 -6 58 -4 6 -42 16 -83 22 -160 20 -236 64 -280 162 l-24 53 -6
900 c-6 935 -5 920 -47 1050 -29 91 -124 230 -196 283 -53 40 -178 99 -247
116 -81 20 -250 21 -339 2 -72 -16 -215 -79 -299 -133 -78 -50 -180 -144 -261
-240 l-69 -82 -16 49 c-43 129 -170 270 -310 342 -137 70 -299 94 -460 67z"/>
<path d="M5882 11051 c-9 -5 -12 -26 -10 -67 l3 -59 95 -12 c123 -16 170 -35
215 -85 60 -66 67 -94 75 -288 9 -256 2 -1855 -9 -1953 -11 -91 -56 -235 -97
-305 -30 -51 -127 -125 -200 -154 -27 -10 -88 -22 -136 -25 -198 -14 -333 49
-400 184 -28 58 -32 75 -32 155 -1 115 2 118 138 118 119 1 186 20 244 71 44
38 94 115 112 173 17 54 18 162 1 219 -19 64 -86 138 -153 168 -46 21 -68 24
-173 24 -118 0 -122 -1 -195 -36 -94 -46 -170 -120 -229 -223 -65 -113 -84
-195 -84 -346 0 -150 18 -233 75 -340 59 -112 101 -163 183 -225 153 -115 264
-149 490 -149 124 0 165 4 240 23 212 55 355 156 498 352 89 123 129 215 173
404 23 98 26 142 34 410 5 165 9 672 9 1127 1 808 1 828 -18 838 -24 12 -829
14 -849 1z"/>
<path d="M7490 7936 c0 -17 9 -27 31 -36 l31 -13 -6 -176 c-3 -97 -6 -205 -6
-239 0 -55 -3 -65 -19 -69 -22 -6 -36 -32 -24 -44 5 -5 42 -11 83 -13 41 -3
66 -3 55 0 -11 3 -24 9 -28 13 -10 10 29 8 66 -3 32 -10 51 2 41 27 -5 15 -40
33 -55 29 -4 -1 -3 15 2 36 12 54 9 246 -5 254 -8 5 -8 13 2 28 7 12 12 58 12
125 l0 105 -90 0 c-88 0 -90 0 -90 -24z"/>
<path d="M9340 7949 c11 -8 -2 -9 -47 -4 -62 6 -63 6 -63 -18 0 -18 7 -27 24
-31 31 -8 32 -17 26 -276 -4 -175 -8 -215 -19 -215 -8 0 -19 -8 -25 -18 -19
-32 15 -46 109 -44 46 0 81 5 79 9 -3 4 -1 8 5 8 5 0 11 -6 14 -12 3 -9 8 -10
16 -2 8 7 1 16 -26 31 -23 12 -36 26 -34 34 3 8 4 69 4 136 0 79 4 120 10 116
6 -4 8 0 4 9 -6 17 15 40 46 51 12 5 16 3 11 -4 -4 -8 1 -9 17 -4 32 10 48 26
32 32 -7 3 -13 9 -13 15 0 12 40 0 58 -18 7 -8 18 -14 23 -14 6 0 8 -10 4 -22
-4 -16 -3 -19 3 -10 7 11 10 11 15 -3 4 -9 3 -14 -3 -10 -6 4 -14 -4 -19 -17
-9 -21 -10 -21 -10 9 -1 17 -6 35 -12 39 -7 4 -9 0 -5 -12 3 -11 2 -25 -3 -32
-6 -10 -10 -7 -15 12 -15 59 -21 17 -20 -136 1 -154 0 -164 -20 -182 -21 -18
-21 -18 14 -11 45 9 50 13 50 33 -1 15 -2 15 -15 -2 -22 -29 -18 -8 6 30 13
21 16 34 9 34 -8 0 -9 7 -5 18 4 9 9 33 11 52 7 49 14 50 14 3 0 -23 5 -43 11
-45 14 -5 2 -88 -12 -88 -5 0 -9 -7 -9 -16 0 -14 3 -14 15 -4 13 11 14 10 9
-5 -7 -16 -3 -17 35 -12 59 7 72 26 22 30 -24 2 -23 -6 -21 122 2 169 -23 246
-85 261 -35 9 -94 11 -91 4 5 -11 -64 -68 -70 -58 -4 5 -2 13 3 17 14 10 16
200 2 217 -6 8 -26 14 -43 14 -25 0 -28 -2 -16 -11z"/>
<path d="M6820 7929 c-9 -17 -8 -23 7 -35 10 -7 25 -11 33 -8 8 3 11 2 8 -2
-4 -3 -1 -13 7 -21 9 -9 15 -34 15 -66 0 -29 3 -104 6 -167 4 -82 3 -111 -5
-100 -8 11 -10 -2 -8 -50 1 -48 -1 -64 -11 -62 -6 1 -11 -3 -10 -9 4 -18 -51
-34 -65 -19 -9 10 -9 11 0 6 6 -3 14 -2 17 3 3 5 -3 11 -14 14 -11 3 -20 1
-20 -5 0 -5 -5 -6 -10 -3 -15 9 -2 25 22 25 13 0 18 5 15 14 -3 8 -1 17 6 19
18 6 -3 56 -33 79 -24 17 -28 18 -57 3 -43 -21 -54 -37 -52 -76 2 -53 17 -82
52 -106 38 -26 114 -34 127 -13 6 9 20 11 51 6 31 -4 39 -3 29 4 -13 8 -12 10
4 10 25 0 79 57 72 76 -3 8 -1 14 5 14 6 0 9 6 6 14 -3 7 0 19 6 26 9 10 9 11
-1 6 -10 -6 -11 26 -8 156 4 138 8 204 15 240 0 4 13 8 28 10 14 2 28 8 30 13
2 6 -41 9 -119 8 -80 -2 -116 1 -103 7 18 8 17 9 -7 9 -18 1 -31 -6 -38 -20z"/>
<path d="M7212 7770 c-28 -13 -41 -24 -36 -31 4 -8 3 -9 -4 -5 -8 4 -16 -3
-22 -19 -5 -14 -14 -23 -20 -20 -6 4 -7 -1 -3 -11 4 -11 3 -15 -4 -11 -7 5 -9
0 -6 -13 3 -12 0 -20 -7 -20 -7 0 -9 -8 -5 -19 3 -11 1 -22 -5 -26 -15 -9 -3
-109 19 -154 9 -19 33 -48 54 -64 34 -28 44 -31 111 -31 64 -1 79 3 122 29 50
31 76 67 67 91 -8 21 -28 17 -64 -13 -44 -37 -124 -48 -150 -20 -10 11 -16 24
-13 29 3 5 1 14 -4 21 -10 12 -12 18 -12 36 0 5 -6 16 -13 23 -11 11 9 13 117
13 l131 0 -3 54 c-5 140 -126 217 -250 161z"/>
<path d="M7750 7783 c-35 -7 -63 -29 -65 -52 -1 -17 4 -20 28 -17 19 2 36 -3
48 -15 17 -17 19 -35 19 -147 0 -124 -1 -129 -25 -150 -55 -48 -19 -66 115
-57 88 5 110 17 84 46 -18 20 -54 31 -54 17 0 -5 -4 -7 -9 -4 -5 3 -3 22 4 43
8 24 10 45 4 61 -6 15 -5 21 1 17 6 -3 10 -1 10 4 0 6 -6 11 -12 11 -9 0 -10
3 -2 8 6 4 10 18 8 32 -1 14 -3 49 -3 78 -1 45 -6 57 -33 86 -33 35 -72 48
-118 39z"/>
<path d="M8107 7778 c-15 -5 -25 -14 -22 -19 4 -5 -1 -6 -9 -3 -15 6 -76 -73
-76 -98 0 -8 -5 -19 -12 -26 -22 -22 -13 -132 15 -189 30 -60 98 -109 128 -92
23 12 102 12 94 0 -12 -20 40 -1 74 27 48 39 74 75 74 106 0 14 3 26 6 26 4 0
6 31 5 70 -1 54 -7 79 -27 113 -28 46 -65 77 -98 80 -10 1 -19 5 -19 9 0 11
-99 8 -133 -4z m110 -62 c-1 -6 4 -10 12 -8 8 2 11 -3 8 -13 -4 -8 -2 -15 3
-15 5 0 9 -52 8 -121 -1 -116 -2 -121 -27 -140 -18 -14 -33 -18 -51 -13 -14 3
-30 7 -37 7 -19 1 -36 153 -23 212 6 28 12 57 14 65 5 32 18 41 56 38 21 -1
38 -7 37 -12z"/>
<path d="M8397 7773 c-11 -10 -8 -43 4 -43 5 0 8 -4 4 -10 -3 -5 2 -18 12 -28
10 -10 20 -27 21 -37 4 -23 42 -108 51 -115 3 -3 7 -16 9 -30 1 -13 8 -28 15
-32 6 -4 8 -8 3 -8 -6 0 -5 -5 1 -11 6 -6 9 -18 6 -25 -3 -8 0 -14 7 -14 6 0
8 -4 5 -10 -3 -5 -2 -10 2 -10 5 0 9 -10 10 -22 2 -25 19 -38 53 -38 33 0 55
15 45 30 -5 8 -4 11 3 6 13 -8 31 22 36 61 6 48 18 83 26 78 10 -6 22 24 14
36 -8 13 6 50 16 44 5 -3 12 0 16 6 4 8 3 9 -4 5 -17 -10 -15 10 3 28 9 8 12
22 8 32 -5 13 -3 15 7 9 9 -5 11 -4 6 4 -11 17 3 51 20 51 8 0 13 4 10 9 -4 5
0 12 6 14 7 3 -14 6 -47 6 -43 1 -56 4 -45 11 11 7 4 9 -25 7 -35 -2 -40 -6
-43 -28 -2 -21 2 -27 22 -31 14 -3 31 0 38 6 9 9 10 8 2 -4 -18 -25 -76 -209
-69 -219 3 -6 -3 -9 -12 -8 -11 0 -18 9 -19 21 -2 39 -13 79 -25 87 -6 4 -8
12 -5 18 4 6 2 11 -5 11 -7 0 -10 3 -6 6 3 4 -1 13 -9 21 -8 8 -11 19 -8 24 3
6 -2 20 -13 31 -18 21 -18 21 8 15 20 -5 29 -2 33 9 11 29 6 32 -61 28 -48 -3
-62 -1 -48 5 16 8 11 10 -26 10 -25 1 -49 -2 -52 -6z"/>
<path d="M8887 7756 c-10 -8 -20 -27 -23 -42 -3 -16 -9 -33 -15 -38 -5 -6 -9
-15 -9 -20 0 -6 5 -4 11 4 9 12 10 11 6 -7 -6 -28 -1 -32 51 -37 46 -4 52 3
52 60 0 24 -4 33 -11 28 -7 -4 -10 -1 -7 7 3 8 12 13 21 13 9 -1 14 2 11 7 -8
14 30 10 51 -5 12 -9 19 -27 20 -52 0 -22 4 -44 8 -50 4 -8 -13 -13 -51 -17
-31 -3 -58 -11 -60 -17 -2 -5 -8 -8 -13 -4 -14 8 -69 -19 -69 -34 0 -7 -4 -11
-9 -8 -10 7 -24 -22 -16 -34 3 -5 1 -11 -5 -15 -29 -18 7 -121 49 -137 14 -6
33 -13 41 -17 8 -4 26 -4 40 0 23 6 22 7 -8 8 -18 1 -31 5 -28 10 6 10 44 3
62 -10 12 -10 57 18 49 31 -3 4 2 13 9 19 9 8 16 8 20 2 4 -5 2 -12 -4 -16 -5
-3 -10 -10 -10 -14 0 -13 52 -31 75 -27 11 3 22 5 25 5 3 1 -2 6 -10 12 -11 8
-6 9 23 7 31 -3 37 -1 37 15 0 10 4 15 10 12 6 -3 7 1 4 9 -3 9 -17 16 -31 16
-13 0 -21 -4 -18 -10 3 -5 1 -10 -5 -10 -8 0 -9 6 -4 18 11 25 13 264 1 287
-24 51 -53 63 -140 61 -45 -1 -91 -6 -101 -11 -14 -6 -17 -5 -12 3 9 15 5 15
-17 -2z"/>
</g>
</svg>
